# xmcd CD database file
#
# Track frame offsets:
#	150
#	22650
#	44006
#	72074
#	92740
#	109635
#	132345
#	173217
#	190903
#	212468
#
# Disc length: 3208 seconds
#
# Revision: 0
# Processed by: cddbd v1.5.2PL0 Copyright (c) Steve Scherf et al.
# Submitted via: CDex 1.70beta2
#
DISCID=800c860a
DTITLE=Gary Willis - Actual Fiction 2007
DYEAR=2007
DGENRE=Jazz
TTITLE0=Cartoon Fetish
TTITLE1=Smells Like a Party
TTITLE2=PodCast
TTITLE3=Say Never
TTITLE4=Eye Candy
TTITLE5=Take Me To Your Leader
TTITLE6=Mean Streak
TTITLE7=If Only It Could Talk
TTITLE8=Tio Loco
TTITLE9=Based on a True Story
EXTD=YEAR: 2007
EXTT0=
EXTT1=
EXTT2=
EXTT3=
EXTT4=
EXTT5=
EXTT6=
EXTT7=
EXTT8=
EXTT9=
PLAYORDER=
